<?xml version="1.0" encoding="UTF-8" standalone="no"?>
<svg width="678px" height="250px" viewBox="0 0 678 250" version="1.1" xmlns="http://www.w3.org/2000/svg" xmlns:xlink="http://www.w3.org/1999/xlink" xmlns:sketch="http://www.bohemiancoding.com/sketch/ns">
    <!-- Generator: Sketch 3.2.2 (9983) - http://www.bohemiancoding.com/sketch -->
    <title>super logo</title>
    <desc>Created with Sketch.</desc>
    <defs></defs>
    <g id="Welcome" stroke="none" stroke-width="1" fill="none" fill-rule="evenodd" sketch:type="MSPage">
        <g id="SPLASH" sketch:type="MSArtboardGroup" transform="translate(-301.000000, -124.000000)">
            <g id="super-logo" sketch:type="MSLayerGroup" transform="translate(301.000000, 124.000000)">
                <path d="M110.522626,123.975544 C115.596341,133.920596 118.244349,146.322982 115.749991,162.710877 C109.054779,206.735263 79.3218921,235.185193 39.9973298,235.185193 C36.6137632,235.185193 33.1942361,234.889088 29.8302844,234.35814 L29.2254923,238.330035 L29.5556761,238.61593 C37.300284,245.327649 50.6384014,249.663719 63.5384532,249.663719 C92.6763553,249.663719 116.132481,232.734667 127.66276,205.043719 C123.883627,195.190561 122.984612,183.179579 125.132441,169.048211 L128.751386,145.250877 C124.066699,136.64 117.335527,129.982737 110.522626,123.975544" id="Fill-1" fill-opacity="0.25" fill="#000000" sketch:type="MSShapeGroup"></path>
                <path d="M124.220349,27.5643509 L118.231273,66.9361404 C124.494957,68.8965614 130.591915,72.8990877 136.437149,79.0117895 L137.480007,80.1009123 L144.09349,36.6176842 L143.681578,36.342 C137.489814,32.1829123 131.03325,29.2967368 124.220349,27.5643509" id="Fill-2" fill-opacity="0.25" fill="#000000" sketch:type="MSShapeGroup"></path>
                <path d="M85.8569158,51.0383509 C76.0265925,51.0383509 69.5079146,56.8277193 67.9714157,66.9225263 C66.2322298,78.3719298 73.3099318,85.1040702 85.9746051,96.0089123 C86.3015197,96.2914035 86.6382418,96.5841053 86.9684256,96.87 C86.0072966,93.5958246 85.7098042,90.0323509 86.3211346,86.0162105 C88.2433927,73.3721754 97.0831646,65.5168772 109.39477,65.5168772 C110.19898,65.5168772 110.996652,65.5951579 111.794324,65.6632281 L109.172468,62.9234035 C101.633816,55.0374737 93.787865,51.0383509 85.8569158,51.0383509" id="Fill-3" fill-opacity="0.25" fill="#000000" sketch:type="MSShapeGroup"></path>
                <path d="M220.761512,29.0687018 L199.51206,29.0687018 L181.05446,150.417404 C180.874657,151.601825 180.678508,152.833895 180.475821,154.096596 C178.978552,163.429018 176.932066,176.212596 181.028307,181.249789 C181.597138,181.947509 183.323247,184.071298 189.227326,184.071298 C192.607623,184.071298 195.285054,183.547158 197.468844,182.532912 C197.844796,179.330211 198.348244,176.137719 198.828809,173.146035 C199.028227,171.900351 199.224376,170.685298 199.400909,169.511088 L220.761512,29.0687018" id="Fill-4" fill-opacity="0.25" fill="#000000" sketch:type="MSShapeGroup"></path>
                <path d="M281.083802,29.0687018 L259.932425,168.146281 C257.143843,186.480982 249.735957,235.185193 183.08133,235.185193 C175.140574,235.185193 167.997489,234.378561 161.593231,232.846982 L162.014951,233.435789 C170.848185,244.204491 185.856836,249.663719 206.622454,249.663719 C241.252522,249.663719 258.644381,236.083719 267.758761,220.825789 L296.922816,29.0687018 L281.083802,29.0687018 Z" id="Fill-5" fill-opacity="0.25" fill="#000000" sketch:type="MSShapeGroup"></path>
                <path d="M412.640792,36.4100702 C416.455886,46.9235088 417.312403,59.6764561 415.037077,74.6416842 C408.59032,117.052807 378.517442,143.395965 336.554678,143.395965 L336.371606,143.395965 L336.188534,143.385754 L332.657856,143.161123 L319.185704,231.754456 L297.991827,231.754456 L295.791692,246.229579 L338.23502,246.229579 L351.75294,157.346947 L360.050034,157.874491 C382.577722,157.874491 401.398198,149.740105 414.507475,135.35007 L427.450026,50.2555439 C426.55428,48.8226667 425.59315,47.4476491 424.533947,46.1543158 C421.30403,42.2164561 417.299326,39.0001404 412.640792,36.4100702" id="Fill-6" fill-opacity="0.25" fill="#000000" sketch:type="MSShapeGroup"></path>
                <path d="M349.183391,51.3242456 L346.626919,51.3242456 L339.892477,95.6038947 C353.24694,94.4160702 360.040226,87.1938246 362.331898,72.1128772 C363.1688,66.6230175 363.466292,59.2237895 360.128493,55.1565965 C358.042778,52.6141754 354.361719,51.3242456 349.183391,51.3242456" id="Fill-7" fill-opacity="0.25" fill="#000000" sketch:type="MSShapeGroup"></path>
                <path d="M511.630546,204.635298 L499.080293,204.635298 L494.957899,231.754456 L431.742415,231.754456 L429.53901,246.229579 L514.007216,246.229579 L516.207351,231.754456 L507.504883,231.754456 L511.630546,204.635298" id="Fill-8" fill-opacity="0.25" fill="#000000" sketch:type="MSShapeGroup"></path>
                <path d="M538.329665,29.0687018 L525.233464,29.0687018 L521.107802,56.1844561 L479.63541,56.1844561 L474.408045,90.5701053 L495.657497,90.5701053 L498.684726,70.6629825 L532.003867,70.6629825 L538.329665,29.0687018" id="Fill-9" fill-opacity="0.25" fill="#000000" sketch:type="MSShapeGroup"></path>
                <path d="M525.109237,115.994316 L507.070087,115.994316 L502.947693,143.11007 L466.414982,143.11007 L460.926085,179.211088 L482.175537,179.211088 L485.464298,157.588596 L518.783438,157.588596 L525.109237,115.994316" id="Fill-10" fill-opacity="0.25" fill="#000000" sketch:type="MSShapeGroup"></path>
                <path d="M571.766495,158.303333 L560.595821,231.754456 L539.401945,231.754456 L537.19854,246.229579 L579.645137,246.229579 L584.0781,217.075123 L571.766495,158.303333" id="Fill-11" fill-opacity="0.25" fill="#000000" sketch:type="MSShapeGroup"></path>
                <path d="M588.71375,51.3174386 L588.556831,51.3242456 L588.033767,51.3242456 L581.155483,96.5670877 L581.371247,96.5738947 C595.212813,96.5296491 603.536059,87.9153684 606.112147,70.9692982 C606.844436,66.1703509 607.034046,59.6185965 603.794322,55.6705263 C601.391499,52.7401053 597.069688,51.2527719 590.956384,51.2527719 C590.230634,51.2527719 589.485268,51.273193 588.71375,51.3174386 Z" id="Fill-12" fill-opacity="0.25" fill="#000000" sketch:type="MSShapeGroup"></path>
                <path d="M657.849658,72.6404211 C653.93649,98.3845614 641.196626,118.34614 620.898496,130.653228 L642.612167,231.754456 L611.891998,231.754456 L614.925766,246.229579 L659.588844,246.229579 L638.447274,147.789895 C659.281544,136.541298 672.328708,117.17193 676.196108,91.7341053 C679.144878,72.3443158 676.333412,57.2565614 667.833631,46.8962807 C664.46968,42.7984561 660.376708,39.6434035 655.842402,37.1928772 C659.232507,47.012 659.94845,58.8425965 657.849658,72.6404211 Z" id="Fill-13" fill-opacity="0.25" fill="#000000" sketch:type="MSShapeGroup"></path>
                <path d="M85.0919356,6.46940351 C98.2731339,6.46940351 109.518998,10.1860351 119.73508,17.0475088 L113.428897,58.5090526 C106.321772,51.0757895 97.1158561,44.7827018 85.8569158,44.7827018 C73.2216649,44.7827018 64.0386326,52.7911579 62.037915,65.9423158 C56.6470925,101.40007 118.685684,103.401333 109.81649,161.73407 C103.990871,200.050772 78.44903,228.929544 39.9973298,228.929544 C28.4637812,228.929544 14.7464428,225.212912 6.49511724,218.06214 L12.6705348,177.458281 C21.2389676,184.323158 29.8793216,188.897474 41.9653559,188.897474 C55.1498235,188.897474 66.9775952,179.748842 69.1515776,165.450702 C71.6753586,148.865404 59.9946985,142.575719 49.7655393,133.998877 C28.6664683,117.413579 16.5477425,101.40007 21.3305037,69.9482456 C26.5055625,35.9199649 49.9355349,6.46940351 85.0919356,6.46940351 M85.0919356,0.213754386 C66.8729825,0.213754386 50.4749441,7.42919298 37.6696975,21.0772632 C26.1328798,33.3741404 18.2215455,50.3814737 15.397003,68.9680351 C10.2154059,103.033754 23.2887224,121.004281 46.0714038,138.930561 C47.4967517,140.125193 48.9482527,141.275579 50.3899463,142.415754 C59.8802783,149.937509 64.761114,154.331439 63.2180768,164.473895 C61.5900419,175.171123 52.8516135,182.641825 41.9653559,182.641825 C32.7529013,182.641825 25.3286698,179.704596 16.3319788,172.502772 L8.3160318,166.083754 L0.0254764676,220.597754 L2.65060105,222.871298 C11.2844168,230.352211 25.9432693,235.185193 39.9973298,235.185193 C79.3218921,235.185193 109.054779,206.738667 115.749991,162.710877 C121.271579,126.412456 101.699199,109.554877 85.9746051,96.0089123 C73.3099318,85.1040702 66.2322298,78.3719298 67.9714157,66.9225263 C69.5079146,56.8277193 76.0265925,51.0383509 85.8569158,51.0383509 C93.787865,51.0383509 101.633816,55.0374737 109.172468,62.9234035 L117.51533,71.6465965 L126.28318,14.0013684 L122.994419,11.7924912 C111.392219,4.00185965 98.9956153,0.213754386 85.0919356,0.213754386" id="Fill-15" fill="#FFFFFF" sketch:type="MSShapeGroup"></path>
                <path d="M277.915999,9.90014035 L253.995655,167.16607 C250.517283,190.041053 242.131922,228.929544 183.08133,228.929544 C144.904239,228.929544 124.936292,210.342982 131.065942,170.025018 L155.417813,9.90014035 L196.340988,9.90014035 L175.120959,149.437193 C172.642946,165.736596 166.980784,190.326947 189.227326,190.326947 C209.277001,190.326947 211.666747,174.599333 214.380138,158.589228 L236.992824,9.90014035 L277.915999,9.90014035 M284.951202,3.64449123 L231.860264,3.64449123 L208.443368,157.609018 L208.355101,158.136561 C205.471714,175.17793 203.314078,184.071298 189.227326,184.071298 C183.323247,184.071298 181.597138,181.947509 181.028307,181.249789 C176.932066,176.212596 178.978552,163.429018 180.475821,154.096596 C180.678508,152.833895 180.874657,151.601825 181.05446,150.417404 L203.376191,3.64449123 L150.288523,3.64449123 L125.132441,169.048211 C122.016944,189.537333 125.161863,205.683579 134.478931,217.041088 C144.355022,229.079298 160.707292,235.185193 183.08133,235.185193 C249.735957,235.185193 257.143843,186.480982 259.932425,168.146281 L284.951202,3.64449123" id="Fill-17" fill="#FFFFFF" sketch:type="MSShapeGroup"></path>
                <path d="M355.074393,9.78442105 C373.456803,9.78442105 418.178726,13.9979649 409.103576,73.6648772 C402.973926,113.982842 374.457162,137.143719 336.554678,137.143719 L327.577602,136.57193 L314.053144,225.498807 L273.129969,225.498807 L305.919507,9.90014035 L348.490332,9.90014035 C349.732608,9.90014035 352.047163,9.78442105 355.074393,9.78442105 L355.074393,9.78442105 Z M335.685086,102.036526 C353.688275,102.036526 365.084519,94.0280702 368.268668,73.0930877 C370.615915,57.6513684 366.761591,45.0685965 349.183391,45.0685965 L341.494359,45.0685965 L332.840928,101.97186 C333.805326,102.016105 334.753379,102.036526 335.685086,102.036526 L335.685086,102.036526 Z M355.074393,3.52877193 C353.168481,3.52877193 351.537177,3.57301754 350.25894,3.60705263 C349.53319,3.62747368 348.938205,3.64449123 348.490332,3.64449123 L300.786947,3.64449123 L266.094766,231.754456 L319.185704,231.754456 L332.657856,143.161123 L336.188534,143.385754 L336.371606,143.395965 L336.554678,143.395965 C378.517442,143.395965 408.59032,117.052807 415.037077,74.6416842 C418.420643,52.3929474 415.040346,34.8989123 404.99099,22.6462807 C394.585297,9.96140351 377.788422,3.52877193 355.074393,3.52877193 L355.074393,3.52877193 Z M346.623649,51.3242456 L349.183391,51.3242456 C354.361719,51.3242456 358.042778,52.6141754 360.128493,55.1565965 C363.466292,59.2237895 363.1688,66.6230175 362.331898,72.1128772 C360.040226,87.1938246 353.24694,94.4160702 339.892477,95.6038947 L346.623649,51.3242456 L346.623649,51.3242456 Z" id="Fill-19" fill="#FFFFFF" sketch:type="MSShapeGroup"></path>
                <path d="M522.065661,9.90014035 L515.975242,49.9322105 L474.50285,49.9322105 L467.372842,96.8257544 L503.902284,96.8257544 L497.815133,136.857825 L461.282422,136.857825 L453.890882,185.466737 L495.91249,185.466737 L489.825339,225.498807 L406.880556,225.498807 L439.670095,9.90014035 L522.065661,9.90014035 M529.100865,3.64449123 L434.537535,3.64449123 L399.845353,231.754456 L494.957899,231.754456 L502.947693,179.211088 L460.926085,179.211088 L466.414982,143.11007 L502.944424,143.11007 L510.934218,90.5701053 L474.408045,90.5701053 L479.63541,56.1878596 L521.107802,56.1878596 L529.100865,3.64449123" id="Fill-21" fill="#FFFFFF" sketch:type="MSShapeGroup"></path>
                <path d="M588.527408,9.90014035 C614.618466,9.90014035 660.873619,12.7590877 651.916157,71.663614 C648.30702,95.3962807 636.155602,115.698211 614.046365,127.419895 L635.112745,225.498807 L591.992703,225.498807 L571.145357,125.990421 L570.59614,125.990421 L555.463261,225.498807 L514.540086,225.498807 L547.329625,9.90014035 L588.527408,9.90014035 L588.527408,9.90014035 Z M581.260096,102.829544 C599.936729,102.829544 609.351871,89.6749825 612.048917,71.9495088 C614.298089,57.1612632 609.597057,44.9971228 590.956384,44.9971228 C590.12929,44.9971228 589.279312,45.0209474 588.396642,45.0685965 L582.901207,45.0685965 L574.162779,102.543649 L581.260096,102.829544 L581.260096,102.829544 Z M588.527408,3.64449123 L542.197065,3.64449123 L507.504883,231.754456 L560.595821,231.754456 L571.766495,158.303333 L587.151098,231.754456 L642.612167,231.754456 L620.898496,130.653228 C641.196626,118.34614 653.93649,98.3845614 657.849658,72.6404211 C661.050152,51.5931228 657.833312,35.0248421 648.290674,23.3916491 C632.088784,3.64449123 601.561495,3.64449123 588.527408,3.64449123 L588.527408,3.64449123 Z M588.033767,51.3242456 L588.556831,51.3242456 L588.71375,51.3174386 C589.485268,51.273193 590.230634,51.2527719 590.956384,51.2527719 C597.069688,51.2527719 601.38823,52.7401053 603.794322,55.6705263 C607.034046,59.6185965 606.844436,66.1703509 606.112147,70.9692982 C603.536059,87.9153684 595.212813,96.5296491 581.371247,96.5738947 L581.155483,96.5670877 L588.033767,51.3242456 L588.033767,51.3242456 Z" id="Fill-23" fill="#FFFFFF" sketch:type="MSShapeGroup"></path>
                <g id="inner-colors" transform="translate(6.353414, 6.363636)" sketch:type="MSShapeGroup">
                    <path d="M79.5035022,38.4190654 C66.8682512,38.4190654 57.6852189,46.4275215 55.6845013,59.5786794 C50.2936789,95.0364338 112.332271,97.037697 103.463076,155.370434 C97.6374574,193.687136 72.0956164,222.565907 33.6439161,222.565907 C22.1103676,222.565907 8.39302916,218.849276 0.141703586,211.698504 L6.31712118,171.094644 C14.885554,177.959522 23.525908,182.533837 35.6119423,182.533837 C48.7964098,182.533837 60.6241816,173.385206 62.7981639,159.087065 C65.321945,142.501767 53.6412848,136.212083 43.4121257,127.635241 C22.3130546,111.049943 10.1943288,95.0364338 14.9770901,63.5846093 C20.1521488,29.5563285 43.5821213,0.105767145 78.7385219,0.105767145 C91.9197203,0.105767145 103.165584,3.82239872 113.381667,10.6838724 L107.075483,52.1454163 C99.9683588,44.7121531 90.7624425,38.4190654 79.5035022,38.4190654 Z" id="Fill-14" fill="#00E178"></path>
                    <path d="M189.987575,3.53650399 L168.767545,143.073557 C166.289532,159.37296 160.627371,183.963311 182.873912,183.963311 C202.923587,183.963311 205.313333,168.235697 208.026725,152.225592 L230.63941,3.53650399 L271.562585,3.53650399 L247.642241,160.802434 C244.163869,183.677416 235.778509,222.565907 176.727917,222.565907 C138.550825,222.565907 118.582879,203.979346 124.712528,163.661381 L149.0644,3.53650399 L189.987575,3.53650399" id="Fill-16" fill="#3686FF"></path>
                    <path d="M266.776555,219.135171 L299.566094,3.53650399 L342.136918,3.53650399 C350.927653,3.53650399 413.319313,-2.18139075 402.750162,67.3012408 C396.620513,107.619206 368.103748,130.780083 330.201265,130.780083 L321.224189,130.208293 L307.69973,219.135171 L266.776555,219.135171 L266.776555,219.135171 Z M326.487514,95.6082233 C346.131815,96.4659075 358.567648,88.7467496 361.915254,66.7294514 C364.262501,51.2877321 360.408178,38.7049601 342.829977,38.7049601 L335.140945,38.7049601 L326.487514,95.6082233 L326.487514,95.6082233 Z" id="Fill-18" fill="#9013FE"></path>
                    <path d="M515.712248,3.53650399 L509.621828,43.5685742 L468.149436,43.5685742 L461.019428,90.462118 L497.54887,90.462118 L491.46172,130.494188 L454.929008,130.494188 L447.537468,179.1031 L489.559076,179.1031 L483.471926,219.135171 L400.527143,219.135171 L433.316681,3.53650399 L515.712248,3.53650399" id="Fill-20" fill="#FF0083"></path>
                    <path d="M540.976211,3.53650399 L582.173995,3.53650399 C608.265052,3.53650399 654.520205,6.39545136 645.562744,65.2999777 C641.953606,89.0326443 629.802189,109.334574 607.692952,121.056258 L628.759331,219.135171 L585.63929,219.135171 L564.791943,119.626785 L564.242726,119.626785 L549.109848,219.135171 L508.186673,219.135171 L540.976211,3.53650399 Z M567.809365,96.1800128 L574.906682,96.4659075 C593.583316,96.4659075 602.998457,83.3113461 605.695503,65.5858724 C608.04275,50.1441531 602.815385,37.5613812 582.043229,38.7049601 L576.547794,38.7049601 L567.809365,96.1800128 L567.809365,96.1800128 Z" id="Fill-22" fill="#FED441"></path>
                </g>
            </g>
        </g>
    </g>
</svg>